# xmcd
#
# Track frame offsets: 
#        150
#        18486
#        29141
#        47589
#        62842
#        79706
#        97525
#        109310
#        126272
#        144893
#        159854
#        176744
#        191412
#        213519
#        230763
#        250531
#        270728
#        280647
#
# Disc length: 4005 seconds
#
# Revision: 0
# Processed by: cddbd v1.5.2PL0 Copyright (c) Steve Scherf et al.
# Submitted via: ExactAudioCopyFreeDBPlugin 1.0
#
DISCID=f20fa312
DTITLE=Various Artist - New Country Rock Vol. 14
DYEAR=2017
DGENRE=Contry Rock
TTITLE0=Stacie Collins - Keep Rollin'
TTITLE1=Kevin Chase - Raise On The Roof
TTITLE2=Tom Gillam - Flying Blind
TTITLE3=Western Centuries - Weight Of The World
TTITLE4=Micky And The Motorcars - Tonight We Ride
TTITLE5=US Rails - Way Of Love
TTITLE6=Willie Nile - When Levon Sings
TTITLE7=Nick Riggins - Show Me What You're Working With
TTITLE8=William Clark Green - Take Me Away
TTITLE9=Irion - Love Handles
TTITLE10=American Aquarium - Abe Lincoln
TTITLE11=The Northern Lies - Cold Hearted Town
TTITLE12=Shawn Jones Trio - Pain Passed Down
TTITLE13=John Campbelljohn - She's Gone
TTITLE14=Cody McCarver - I'm America
TTITLE15=Flynnville Train - Dixie Train
TTITLE16=Mark Selby - Black Diamond
TTITLE17=Scott Bricklin - On The Rock
EXTD=
EXTT0=
EXTT1=
EXTT2=
EXTT3=
EXTT4=
EXTT5=
EXTT6=
EXTT7=
EXTT8=
EXTT9=
EXTT10=
EXTT11=
EXTT12=
EXTT13=
EXTT14=
EXTT15=
EXTT16=
EXTT17=
PLAYORDER=
